<svg width="50" height="50" viewBox="0 0 50 50" fill="none" xmlns="http://www.w3.org/2000/svg">
<path d="M17.5 0C22.1413 0 26.5925 1.84374 29.8744 5.12563C33.1563 8.40752 35 12.8587 35 17.5C35 21.25 33.75 25 31.525 27.975L33.525 30H35L50 45L45 50L30 35V33.525L27.975 31.525C24.9437 33.7717 21.2731 34.9894 17.5 35C12.8587 35 8.40752 33.1563 5.12563 29.8744C1.84374 26.5925 0 22.1413 0 17.5C0 12.8587 1.84374 8.40752 5.12563 5.12563C8.40752 1.84374 12.8587 0 17.5 0V0ZM22.8 8.65L17.5 13.975L12.2 8.65L8.65 12.2L13.975 17.5L8.65 22.8L12.2 26.35L17.5 21.025L22.8 26.35L26.35 22.8L21.025 17.5L26.35 12.2L22.8 8.65V8.65Z" fill="white"/>
</svg>




