<svg width="50" height="50" viewBox="0 0 50 50" fill="none" xmlns="http://www.w3.org/2000/svg">
<g clip-path="url(#clip0)">
<path d="M25 -0.053125C11.1859 -0.053125 -0.0546875 11.1844 -0.0546875 25C-0.0546875 38.8156 11.1859 50.0531 25 50.0531C38.8141 50.0531 50.0547 38.8156 50.0547 25C50.0547 11.1844 38.8141 -0.053125 25 -0.053125ZM25 48.3844C12.1062 48.3844 1.61719 37.8938 1.61719 25C1.61719 12.1063 12.1062 1.61563 25 1.61563C37.8937 1.61563 48.3828 12.1063 48.3828 25C48.3828 37.8938 37.8937 48.3844 25 48.3844Z" fill="#39B0CA" fill-opacity="0.83"/>
<path d="M24 17C25.8565 17 27.637 17.7375 28.9497 19.0503C30.2625 20.363 31 22.1435 31 24C31 25.5 30.5 27 29.61 28.19L30.42 29H31L36 34L34 36L29 31V30.41L28.19 29.6C25.1 31.92 20.71 31.29 18.39 28.2C16.07 25.11 16.7 20.72 19.79 18.4C21 17.5 22.5 17 24 17ZM23 20V23H20V25H23V28H25V25H28V23H25V20H23ZM14 14V21L21 14H14Z" fill="white"/>
</g>
<defs>
<clipPath id="clip0">
<rect width="50" height="50" fill="white"/>
</clipPath>
</defs>
</svg>







