<svg width="50" height="50" viewBox="0 0 50 50" fill="none" xmlns="http://www.w3.org/2000/svg">
<path d="M25 31.25C28.4518 31.25 31.25 28.4518 31.25 25C31.25 21.5482 28.4518 18.75 25 18.75C21.5482 18.75 18.75 21.5482 18.75 25C18.75 28.4518 21.5482 31.25 25 31.25Z" fill="white"/>
<path d="M48.3438 24.4688C46.506 19.7151 43.3156 15.6041 39.1669 12.6439C35.0181 9.68368 30.0929 8.00402 25 7.8125C19.9071 8.00402 14.9819 9.68368 10.8331 12.6439C6.6844 15.6041 3.494 19.7151 1.65625 24.4688C1.53214 24.812 1.53214 25.188 1.65625 25.5312C3.494 30.2849 6.6844 34.3959 10.8331 37.3561C14.9819 40.3163 19.9071 41.996 25 42.1875C30.0929 41.996 35.0181 40.3163 39.1669 37.3561C43.3156 34.3959 46.506 30.2849 48.3438 25.5312C48.4679 25.188 48.4679 24.812 48.3438 24.4688ZM25 35.1562C22.9913 35.1562 21.0277 34.5606 19.3575 33.4446C17.6873 32.3286 16.3856 30.7424 15.6168 28.8866C14.8481 27.0308 14.647 24.9887 15.0389 23.0186C15.4308 21.0485 16.3981 19.2388 17.8184 17.8184C19.2388 16.3981 21.0485 15.4308 23.0186 15.0389C24.9887 14.647 27.0308 14.8481 28.8866 15.6168C30.7424 16.3856 32.3286 17.6873 33.4446 19.3575C34.5606 21.0277 35.1562 22.9913 35.1562 25C35.1521 27.6923 34.0808 30.2732 32.177 32.177C30.2732 34.0808 27.6923 35.1521 25 35.1562Z" fill="white"/>
</svg>
