<svg width="60" height="60" viewBox="0 0 50 50" fill="none" xmlns="http://www.w3.org/2000/svg">
<path d="M45 0H5C3.67392 0 2.40215 0.526784 1.46447 1.46447C0.526784 2.40215 0 3.67392 0 5V35C0 36.3261 0.526784 37.5979 1.46447 38.5355C2.40215 39.4732 3.67392 40 5 40H20V45H12.5V50H37.5V45H30V40H45C46.3261 40 47.5979 39.4732 48.5355 38.5355C49.4732 37.5979 50 36.3261 50 35V5C50 3.67392 49.4732 2.40215 48.5355 1.46447C47.5979 0.526784 46.3261 0 45 0ZM45 35H5V5H45V35ZM36.875 27.5C36.875 28.6603 36.4141 29.7731 35.5936 30.5936C34.7731 31.4141 33.6603 31.875 32.5 31.875C31.3397 31.875 30.2269 31.4141 29.4064 30.5936C28.5859 29.7731 28.125 28.6603 28.125 27.5L20 23.4C19.3673 23.8871 18.6108 24.1872 17.8163 24.2664C17.0217 24.3456 16.2209 24.2007 15.5045 23.8481C14.788 23.4955 14.1847 22.9493 13.7628 22.2714C13.3409 21.5935 13.1172 20.811 13.1172 20.0125C13.1172 19.214 13.3409 18.4315 13.7628 17.7536C14.1847 17.0757 14.788 16.5295 15.5045 16.1769C16.2209 15.8243 17.0217 15.6794 17.8163 15.7586C18.6108 15.8378 19.3673 16.1379 20 16.625L28.125 12.5C28.111 11.4969 28.4383 10.5188 29.0532 9.72608C29.6681 8.9334 30.5341 8.37318 31.5092 8.13731C32.4843 7.90143 33.5106 8.0039 34.4198 8.42791C35.329 8.85193 36.0672 9.57231 36.5132 10.4709C36.9592 11.3695 37.0866 12.393 36.8746 13.3736C36.6625 14.3541 36.1236 15.2335 35.3461 15.8676C34.5686 16.5016 33.5988 16.8526 32.5956 16.863C31.5924 16.8735 30.6155 16.5427 29.825 15.925L21.775 20L29.825 24.025C30.4703 23.514 31.2472 23.1966 32.0657 23.1096C32.8841 23.0226 33.7104 23.1696 34.4487 23.5335C35.1869 23.8974 35.8068 24.4632 36.2363 25.1654C36.6658 25.8675 36.8872 26.677 36.875 27.5V27.5Z" fill="#AAAAAA" fill-opacity="0.83"/>
</svg>
