<svg width="65" height="65" viewBox="0 0 65 65" fill="none" xmlns="http://www.w3.org/2000/svg">
<g clip-path="url(#clip0)">
<path d="M2.16589 2.16667V0C1.8661 0.000139624 1.56961 0.0624893 1.29516 0.183106C1.02071 0.303722 0.774275 0.47998 0.571444 0.700731C0.368613 0.921483 0.2138 1.18192 0.116796 1.46558C0.0197922 1.74924 -0.0172916 2.04994 0.00789044 2.34867L2.16589 2.16667ZM62.8326 2.16667L64.9906 2.34867C65.0157 2.04994 64.9787 1.74924 64.8817 1.46558C64.7847 1.18192 64.6298 0.921483 64.427 0.700731C64.2242 0.47998 63.9777 0.303722 63.7033 0.183106C63.4288 0.0624893 63.1323 0.000139624 62.8326 0V2.16667ZM58.4992 54.1667L59.1839 56.2207C59.5861 56.0864 59.9402 55.8371 60.2021 55.5035C60.464 55.17 60.6222 54.767 60.6572 54.3443L58.4992 54.1667ZM32.4992 62.8333L31.8146 64.8873C32.259 65.0357 32.7395 65.0357 33.1839 64.8873L32.4992 62.8333ZM6.49922 54.1667L4.34122 54.3443C4.37624 54.767 4.5345 55.17 4.79639 55.5035C5.05829 55.8371 5.4123 56.0864 5.81456 56.2207L6.49922 54.1667ZM45.4992 15.1667H47.6659V13H45.4992V15.1667ZM45.4992 41.1667L46.1839 43.2207L47.6659 42.7267V41.1667H45.4992ZM32.4992 45.5L31.8146 47.554L32.4992 47.7837L33.1839 47.554L32.4992 45.5ZM19.4992 41.1667H17.3326V42.7267L18.8146 43.2207L19.4992 41.1667ZM2.16589 4.33333H62.8326V0L2.16589 0V4.33333ZM60.6746 1.98467L56.3412 53.9847L60.6572 54.3443L64.9906 2.34433L60.6746 1.98467ZM57.8146 52.1127L31.8146 60.7793L33.1839 64.8873L59.1839 56.2207L57.8146 52.1127ZM33.1839 60.7793L7.18389 52.1127L5.81456 56.2207L31.8146 64.8873L33.1839 60.7793ZM8.65722 53.989L4.32389 1.989L0.00789044 2.34867L4.34122 54.3487L8.65722 53.989ZM45.4992 13H17.3326V17.3333H45.4992V13ZM25.9992 30.3333H45.4992V26H25.9992V30.3333ZM43.3326 28.1667V41.1667H47.6659V28.1667H43.3326ZM44.8146 39.1127L31.8146 43.446L33.1839 47.554L46.1839 43.2207L44.8146 39.1127ZM33.1839 43.446L20.1839 39.1127L18.8146 43.2207L31.8146 47.554L33.1839 43.446ZM21.6659 41.1667V34.6667H17.3326V41.1667H21.6659ZM43.3326 15.1667V28.1667H47.6659V15.1667H43.3326Z" fill="#C4C4C4"/>
</g>
<defs>
<clipPath id="clip0">
<rect width="65" height="65" fill="white"/>
</clipPath>
</defs>
</svg>
