<svg width="70" height="70" viewBox="0 0 51 50" fill="none" xmlns="http://www.w3.org/2000/svg">
<path d="M37.2504 30.43C37.2504 32.53 37.8598 33.3675 39.4536 33.3675C43.0057 33.3675 48.5 28.4475 48.5 21.0675C48.5 9.78749 36.9444 1.9925 26.4766 1.9925C15.708 1.9925 2 11.53 2 24.91C2 37.69 12.8186 47.6975 25.9766 47.6975C30.4442 47.6975 35.8215 48.41 39.4536 45.5L40.6164 47.1075C36.0876 48.55 31.2477 48.9675 27.517 48.9675C10.2586 48.9675 1.01489 39.6675 1.01489 25.3275C1.01489 10.8675 11.7274 1.0275 26.4766 1.0275C41.8378 1.0275 49.9749 10.0275 49.9749 21.0675C49.9749 30.4275 46.9786 37.5675 37.5538 37.5675C33.2673 37.5675 30.4546 35.8875 30.0874 32.165C28.9858 36.305 26.0482 37.5675 22.0677 37.5675C16.7433 37.5675 12.2757 33.545 12.2757 25.4475C12.2757 17.2875 16.195 12.2475 23.233 12.2475C26.9662 12.2475 29.2918 13.6875 30.3271 15.9675L32.1045 12.7875H37.2453V30.43H37.2504ZM29.7253 22.51C29.7253 19.2125 27.2136 17.83 25.1328 17.83C22.8684 17.83 20.3617 19.6275 20.3617 24.91C20.3617 29.11 22.2589 31.45 25.1328 31.45C27.1524 31.45 29.7253 30.19 29.7253 26.71V22.51Z" fill="#39B0CA" fill-opacity="0.83"/>
</svg>
