<svg width="70" height="70" viewBox="0 0 70 70" fill="none" xmlns="http://www.w3.org/2000/svg">
<g clip-path="url(#clip0)">
<path d="M35 -0.0743713C15.6581 -0.0743713 -0.0743713 15.6581 -0.0743713 35C-0.0743713 54.3419 15.6581 70.0744 35 70.0744C54.3419 70.0744 70.0744 54.3419 70.0744 35C70.0744 15.6581 54.3419 -0.0743713 35 -0.0743713ZM32.6667 54.25C14.6154 54.25 54.25 33.2179 54.25 15.1667C54.25 -2.88458 16.9488 2.26188 35 2.26188C53.0513 2.26188 11.0833 22.1988 11.0833 40.25C11.0833 58.3013 50.7179 54.25 32.6667 54.25Z" fill="#39B0CA" fill-opacity="0.83"/>
<path d="M28.5781 40.5234H25.0938V50H22.75V40.5234H19.3125V38.625H28.5781V40.5234ZM39.0469 44.5703C39.0469 45.6901 38.849 46.6719 38.4531 47.5156C38.0573 48.3594 37.4896 49.0104 36.75 49.4688C36.0156 49.9271 35.1719 50.1562 34.2188 50.1562C33.276 50.1562 32.4349 49.9297 31.6953 49.4766C30.9557 49.0234 30.3828 48.3776 29.9766 47.5391C29.5703 46.6953 29.3646 45.7266 29.3594 44.6328V44.0703C29.3594 42.9505 29.5599 41.9661 29.9609 41.1172C30.3672 40.263 30.9375 39.6094 31.6719 39.1562C32.4115 38.6979 33.2552 38.4688 34.2031 38.4688C35.151 38.4688 35.9922 38.6979 36.7266 39.1562C37.4661 39.6094 38.0365 40.263 38.4375 41.1172C38.8438 41.9661 39.0469 42.9479 39.0469 44.0625V44.5703ZM36.6719 44.0547C36.6719 42.862 36.4583 41.9557 36.0312 41.3359C35.6042 40.7161 34.9948 40.4062 34.2031 40.4062C33.4167 40.4062 32.8099 40.7135 32.3828 41.3281C31.9557 41.9375 31.7396 42.8333 31.7344 44.0156V44.5703C31.7344 45.7318 31.9479 46.6328 32.375 47.2734C32.8021 47.9141 33.4167 48.2344 34.2188 48.2344C35.0052 48.2344 35.6094 47.9271 36.0312 47.3125C36.4531 46.6927 36.6667 45.7917 36.6719 44.6094V44.0547ZM43.0938 45.9922V50H40.75V38.625H45.1875C46.0417 38.625 46.7917 38.7812 47.4375 39.0938C48.0885 39.4062 48.5885 39.8516 48.9375 40.4297C49.2865 41.0026 49.4609 41.6562 49.4609 42.3906C49.4609 43.5052 49.0781 44.3854 48.3125 45.0312C47.5521 45.6719 46.4974 45.9922 45.1484 45.9922H43.0938ZM43.0938 44.0938H45.1875C45.8073 44.0938 46.2786 43.9479 46.6016 43.6562C46.9297 43.3646 47.0938 42.9479 47.0938 42.4062C47.0938 41.849 46.9297 41.3984 46.6016 41.0547C46.2734 40.7109 45.8203 40.5339 45.2422 40.5234H43.0938V44.0938Z" fill="white"/>
</g>
<path d="M35 21.0373L16.9167 30.2826L9.33334 33.8333L26.2733 18.4034L35 10.5L43.7267 18.4034L60.6667 33.8333L53.6667 30.2826L44.3333 25.6599L35 21.0373Z" fill="white"/>
<defs>
<clipPath id="clip0">
<rect width="70" height="70" fill="white"/>
</clipPath>
</defs>
</svg>
