<svg width="70" height="65" viewBox="0 0 70 65" fill="none" xmlns="http://www.w3.org/2000/svg">
<path d="M4.13875 0L9.75625 58.5L34.965 65L60.2394 58.4919L65.8656 0H4.14312H4.13875ZM55.4225 54.7706L35.105 59.9991V60.0275L35.0525 60.0113L35 60.0275V59.9991L14.6825 54.7706L9.87875 4.78563H60.2262L55.4225 54.7706ZM44.485 33.6538L43.5925 42.9569L34.965 45.1181L26.3594 42.965L25.8081 37.2369H18.0512L19.1319 48.5062L34.9956 52.5809L50.8112 48.5062L52.9331 26.4794H24.7712L24.0669 19.1303H53.6331L54.3244 11.9559H15.6187L17.7056 33.6538H44.485Z" fill="#C4C4C4"/>
</svg>
