<svg width="71" height="70" viewBox="0 -5 71 70" fill="none" xmlns="http://www.w3.org/2000/svg">
<g style="mix-blend-mode:darken">
<path d="M23.5088 20.2822C24.3838 20.2822 25.2588 20.3369 26.1338 20.4463C27.0088 20.542 27.8359 20.6719 28.6152 20.8359C29.4082 21 30.126 21.1846 30.7686 21.3897C31.4248 21.5811 31.958 21.7725 32.3682 21.9639C32.4365 21.9912 32.5049 22.0322 32.5732 22.0869C32.6553 22.1416 32.6963 22.2441 32.6963 22.3945C32.6963 22.4355 32.6895 22.4902 32.6758 22.5586C32.6621 22.627 32.6484 22.6953 32.6348 22.7637L32.3887 23.9736C32.3613 24.1377 32.3203 24.2402 32.2656 24.2813C32.2246 24.3086 32.1836 24.3223 32.1426 24.3223C32.0742 24.3223 31.9443 24.3018 31.7529 24.2607C31.5615 24.2197 31.3564 24.1992 31.1377 24.1992C30.3584 24.1992 29.7432 24.4111 29.292 24.835C28.8408 25.2451 28.5537 25.9697 28.4307 27.0088L27.2822 36.5859C27.1729 37.4336 26.8857 38.2266 26.4209 38.9648C25.9697 39.7031 25.3135 40.3525 24.4522 40.9131C23.5908 41.4736 22.5244 41.9111 21.2529 42.2256C19.9951 42.5537 18.5186 42.7178 16.8232 42.7178C15.7568 42.7178 14.7178 42.6494 13.7061 42.5127C12.6943 42.3897 11.7578 42.2324 10.8965 42.041C10.0488 41.8633 9.30371 41.6856 8.66113 41.5078C8.03223 41.3164 7.56055 41.166 7.24609 41.0566C7.13672 41.0293 7.05469 40.9951 7 40.9541C6.93164 40.8994 6.89746 40.8174 6.89746 40.708C6.89746 40.6533 6.9043 40.5918 6.91797 40.5234C6.93164 40.4551 6.95215 40.3731 6.97949 40.2773L7.22559 39.1289C7.25293 39.0195 7.30078 38.9307 7.36914 38.8623C7.4375 38.794 7.56055 38.7598 7.73828 38.7598C8.18945 38.7598 8.64063 38.7393 9.0918 38.6982C9.55664 38.6436 9.98047 38.5137 10.3633 38.3086C10.7598 38.1035 11.1016 37.7891 11.3887 37.3652C11.6895 36.9414 11.8945 36.3467 12.0039 35.5811L13.4395 25.6963C13.5898 24.6572 13.9727 23.7891 14.5879 23.0918C15.2031 22.3945 15.9619 21.8408 16.8643 21.4307C17.7803 21.0068 18.8125 20.7129 19.9609 20.5488C21.1094 20.3711 22.292 20.2822 23.5088 20.2822Z" fill="#39B0CA"/>
<path d="M7 46.2041H32.5938V48.2959H7V46.2041Z" fill="#39B0CA"/>
<path d="M34.8705 19.4917C34.8705 18.9448 34.9174 18.4682 35.0112 18.062C35.1049 17.6557 35.2846 17.3198 35.5502 17.0542C35.8158 16.7729 36.183 16.562 36.6518 16.4214C37.1205 16.2807 37.7299 16.2104 38.4799 16.2104H48.933C49.7455 16.2104 50.3784 16.3198 50.8315 16.5385C51.2846 16.7417 51.6205 17.0073 51.8393 17.3354C52.0737 17.6635 52.2143 18.0307 52.2612 18.437C52.3237 18.8276 52.3549 19.2026 52.3549 19.562V22.3276L58.2143 16.6323C58.433 16.4135 58.6284 16.2495 58.8002 16.1401C58.9721 16.0151 59.144 15.9526 59.3159 15.9526C59.4721 15.9526 59.6049 15.9917 59.7143 16.0698C59.8393 16.1479 59.9721 16.2573 60.1127 16.3979L61.4252 17.7807C61.5346 17.9057 61.6205 18.0229 61.683 18.1323C61.7455 18.226 61.7768 18.3354 61.7768 18.4604C61.7768 18.7729 61.5893 19.0776 61.2143 19.3745L54.0424 24.976C56.2612 25.1792 57.8784 25.8198 58.894 26.8979C59.9096 27.976 60.4174 29.5229 60.4174 31.5385V48.7651C60.4174 49.0307 60.3784 49.2417 60.3002 49.3979C60.2377 49.5385 60.1518 49.6479 60.0424 49.726C59.9487 49.7885 59.8315 49.8276 59.6909 49.8432C59.5502 49.8589 59.4096 49.8667 59.269 49.8667H57.3002C56.894 49.8667 56.6284 49.7495 56.5034 49.5151C56.394 49.2807 56.3393 49.0307 56.3393 48.7651V31.2807C56.3393 30.562 56.269 29.9682 56.1284 29.4995C56.0034 29.0307 55.7846 28.6557 55.4721 28.3745C55.1596 28.0776 54.7455 27.8667 54.2299 27.7417C53.7299 27.601 53.1049 27.5151 52.3549 27.4839V46.0698C52.3549 46.4292 52.3237 46.8276 52.2612 47.2651C52.1987 47.7026 52.0424 48.1167 51.7924 48.5073C51.5424 48.8823 51.1596 49.2026 50.644 49.4682C50.1284 49.7339 49.4174 49.8667 48.5112 49.8667H38.4799C37.7299 49.8667 37.1205 49.7964 36.6518 49.6557C36.183 49.5151 35.8158 49.312 35.5502 49.0464C35.2846 48.7807 35.1049 48.4448 35.0112 48.0385C34.9174 47.6323 34.8705 47.1557 34.8705 46.6089V19.4917ZM50.3627 19.6792C50.3627 19.3354 50.3393 19.062 50.2924 18.8589C50.2455 18.6557 50.1518 18.5073 50.0112 18.4135C49.8705 18.3042 49.683 18.2417 49.4487 18.226C49.2143 18.1948 48.9096 18.1792 48.5346 18.1792V47.8979C48.9096 47.8979 49.2143 47.8901 49.4487 47.8745C49.683 47.8432 49.8705 47.7807 50.0112 47.687C50.1518 47.5776 50.2455 47.4292 50.2924 47.2417C50.3393 47.0385 50.3627 46.7573 50.3627 46.3979V19.6792Z" fill="#39B0CA"/>
<path d="M32.7143 37.8667H62.3393V40.2573H32.7143V37.8667Z" fill="#39B0CA"/>
</g>
<path d="M35 70C54.33 70 70 54.33 70 35C70 15.67 54.33 0 35 0C15.67 0 0 15.67 0 35C0 54.33 15.67 70 35 70Z" fill="#AAAAAA" fill-opacity="0.15"/>
<path d="M48.9804 55.7815L46.2745 55.6636L52.5882 57.0861H48.9804C46.491 57.0861 44.0376 56.8578 41.7647 56.4338C37.2549 57.2818 31.8431 57.2818 27.3333 56.4338C25.0604 56.8578 22.589 57.0861 20.1176 57.0861H16.5098L22.8235 55.6636L20.1176 55.7815C22.6251 55.7815 25.1325 55.4749 27.3333 54.9139C31.7349 56.0293 37.3631 56.0293 41.7647 54.9139C43.9655 55.4749 46.4729 55.7815 48.9804 55.7815ZM41.7647 51L44.5 52L49 53C46.5106 53 44.0376 52.9439 41.7647 52.5199C37.2549 53.3679 31.8431 53.3679 27.3333 52.5199C25.0604 52.9439 22.589 53 20.1176 53L25 52L27.3333 51C31.7349 52.1155 37.3631 52.1155 41.7647 51C39.2572 51 43.9655 51.561 41.7647 51ZM48.9804 59.6954L58 61L48.9804 61C46.491 61 44.0376 60.7717 41.7647 60.3477C37.2549 61.1957 31.8431 61.1957 27.3333 60.3477C25.0604 60.7717 22.589 61 20.1176 61H12L22.8235 59.5775L20.1176 59.6954C22.6251 59.6954 25.1325 59.3888 27.3333 58.8278C31.7349 59.9432 37.3631 59.9432 41.7647 58.8278C43.9655 59.3888 46.4729 59.6954 48.9804 59.6954Z" fill="#39B0CA" fill-opacity="0.75"/>
</svg>









