<svg width="50" height="50" viewBox="0 0 50 50" fill="none" xmlns="http://www.w3.org/2000/svg">
<path d="M42.8571 12.5C40.4762 12.5 38.5603 11.6536 37.1094 9.96094C30.3757 11.263 24.6187 14.5508 19.8382 19.8242C15.0577 25.0977 12.1466 31.3639 11.1049 38.623C12.0722 39.1764 12.8441 39.9089 13.4208 40.8203C13.9974 41.7318 14.2857 42.7083 14.2857 43.75C14.2857 45.4753 13.5882 46.9482 12.1931 48.1689C10.798 49.3896 9.11458 50 7.14286 50C5.17113 50 3.48772 49.3896 2.09263 48.1689C0.697545 46.9482 0 45.4753 0 43.75C0 42.6107 0.325521 41.569 0.976562 40.625C1.6276 39.681 2.49256 38.9323 3.57143 38.3789V3.125C3.57143 2.27865 3.91555 1.54622 4.60379 0.927734C5.29204 0.309245 6.12909 0 7.11496 0C8.10082 0 8.94717 0.309245 9.65402 0.927734C10.3609 1.54622 10.7143 2.27865 10.7143 3.125V20.459C13.6905 16.0319 17.3921 12.3617 21.8192 9.44824C26.2463 6.53483 31.0826 4.6224 36.3281 3.71094C36.8862 2.60417 37.7511 1.70898 38.923 1.02539C40.0949 0.341797 41.4063 0 42.8571 0C44.8289 0 46.5123 0.610352 47.9074 1.83105C49.3025 3.05176 50 4.52474 50 6.25C50 7.97526 49.3025 9.44824 47.9074 10.6689C46.5123 11.8896 44.8289 12.5 42.8571 12.5ZM7.17076 40.625C6.1849 40.625 5.33854 40.9261 4.6317 41.5283C3.92485 42.1305 3.57143 42.863 3.57143 43.7256C3.57143 44.5882 3.92485 45.3288 4.6317 45.9473C5.33854 46.5658 6.1849 46.875 7.17076 46.875C8.15662 46.875 8.99368 46.5658 9.68192 45.9473C10.3702 45.3288 10.7143 44.5882 10.7143 43.7256C10.7143 42.863 10.3702 42.1305 9.68192 41.5283C8.99368 40.9261 8.15662 40.625 7.17076 40.625ZM42.885 3.125C41.8992 3.125 41.0528 3.43424 40.346 4.05273C39.6391 4.67122 39.2857 5.41178 39.2857 6.27441C39.2857 7.13704 39.6391 7.86947 40.346 8.47168C41.0528 9.07389 41.8992 9.375 42.885 9.375C43.8709 9.375 44.708 9.06576 45.3962 8.44727C46.0844 7.82878 46.4286 7.09635 46.4286 6.25C46.4286 5.40365 46.0844 4.67122 45.3962 4.05273C44.708 3.43424 43.8709 3.125 42.885 3.125Z" fill="#AAAAAA" fill-opacity="0.83"/>
</svg>
