<svg width="65" height="63" viewBox="0 0 65 63" fill="none" xmlns="http://www.w3.org/2000/svg">
<path d="M45.0504 43.6983C47.4066 43.4952 49.2294 41.4233 49.1129 38.9479C48.9856 36.4725 46.9571 34.4846 44.4844 34.4846H44.3191C43.092 34.5283 41.9325 35.0576 41.0956 35.956C40.2586 36.8545 39.8127 38.0485 39.8558 39.2756C39.9371 40.5729 40.4679 41.6292 41.1937 42.3983C38.3554 47.9179 34.0952 51.975 27.6385 55.3848C23.2971 57.6544 18.7119 58.5102 14.2485 57.9035C10.5164 57.3754 7.59685 55.7098 5.80935 53.0312C3.13352 48.9715 2.88977 44.5921 5.11873 40.21C6.74373 37.0412 9.17852 34.731 10.8035 33.5935C10.313 32.2333 9.93256 30.8358 9.66602 29.4146C-2.35086 38.0217 -1.12669 49.7867 2.52414 55.3469C5.24331 59.404 10.8035 61.9985 16.8891 61.9985C18.5141 61.9985 20.2204 61.8794 21.8806 61.4731C32.435 59.4446 40.4273 53.1152 45.0125 43.7823L45.0504 43.6983ZM59.5346 33.5529C53.2512 26.1646 43.9941 22.1075 33.4425 22.1075H32.0612C31.376 20.6071 29.7944 19.6727 28.0041 19.6727H27.8823C25.3283 19.6727 23.3377 21.8665 23.4216 24.4204C23.5029 26.8525 25.5721 28.8838 28.0475 28.8838H28.2479C29.1259 28.8498 29.9756 28.5639 30.6955 28.0601C31.4154 27.5563 31.9751 26.856 32.3077 26.0427H33.8108C40.0644 26.0427 45.9848 27.8681 51.3825 31.4377C55.5181 34.1596 58.4837 37.7292 60.1494 41.9921C61.6064 45.4804 61.5279 48.8902 60.0275 51.734C57.7119 56.1946 53.8146 58.5508 48.6633 58.5508C45.416 58.5508 42.2527 57.5352 40.6277 56.8067C39.6527 57.6137 38.0277 58.9544 36.8523 59.7669C40.4219 61.3865 44.0348 62.3208 47.5231 62.3208C55.4369 62.3208 61.3194 57.8602 63.5537 53.5567C65.9858 48.6871 65.7854 40.4917 59.5725 33.4717L59.5346 33.5529ZM17.5771 45.1554C17.6583 47.5902 19.7248 49.6188 22.2029 49.6188H22.3654C22.9753 49.605 23.5762 49.4693 24.1328 49.2197C24.6894 48.9701 25.1905 48.6116 25.6064 48.1654C26.0223 47.7192 26.3448 47.1942 26.5547 46.6215C26.7646 46.0487 26.8578 45.4397 26.8287 44.8304C26.8287 42.3929 24.7189 40.3698 22.2435 40.3698H22.081C21.9185 40.3698 21.6748 40.3698 21.4689 40.4483C18.1025 34.7663 16.6806 28.6752 17.2114 22.1075C17.5364 17.1567 19.1614 12.8531 22.0783 9.28354C24.5158 6.23938 29.101 4.73354 32.2264 4.65771C40.9906 4.4925 44.6441 15.4125 44.9258 19.754L48.9829 20.9727C48.0485 7.65854 39.7746 0.679169 31.8608 0.679169C24.4291 0.679169 17.5771 6.07688 14.8146 13.9906C11.0419 24.5396 13.5173 34.6877 18.1458 42.8046C17.7396 43.3327 17.4958 44.2644 17.5771 45.1554Z" fill="#C4C4C4"/>
</svg>
