<svg width="50" height="50" viewBox="0 0 50 50" fill="none" xmlns="http://www.w3.org/2000/svg">
<path d="M35.2639 35.3472C34.956 35.1475 34.5816 35.0778 34.2225 35.1533C33.8633 35.2287 33.5487 35.4433 33.3472 35.75C31.3889 38.75 27.7917 42.4306 24.5833 43.6667C21.375 44.9028 18.8611 44.4583 17.8611 43.6667C17.4306 43.2917 16.3056 42.2778 17.2639 38.8194C17.9028 36.5139 21.875 25.6528 22.8194 23.0139L19.7917 23.4028C18.8333 25.9861 15.2222 35.6806 14.5694 38.0972C13.625 41.5556 14.0972 44.0694 16.0833 45.8194C17.4711 46.7931 19.1393 47.2857 20.8333 47.2222C22.4771 47.1985 24.102 46.8688 25.625 46.25C29.5 44.7361 33.5694 40.5278 35.7083 37.2639C35.8053 37.1089 35.8707 36.9364 35.9009 36.7561C35.931 36.5758 35.9253 36.3913 35.884 36.2133C35.8427 36.0352 35.7667 35.8671 35.6603 35.7184C35.5539 35.5698 35.4192 35.4437 35.2639 35.3472V35.3472Z" fill="white"/>
<path d="M26.8056 15.2778C28.0417 15.2778 29.2501 14.9112 30.2779 14.2245C31.3057 13.5377 32.1068 12.5616 32.5798 11.4195C33.0529 10.2775 33.1766 9.02084 32.9355 7.80846C32.6943 6.59608 32.0991 5.48243 31.225 4.60836C30.3509 3.73428 29.2373 3.13902 28.0249 2.89787C26.8125 2.65671 25.5558 2.78048 24.4138 3.25353C23.2717 3.72657 22.2956 4.52765 21.6089 5.55546C20.9221 6.58327 20.5556 7.79164 20.5556 9.02777C20.5556 10.6854 21.214 12.2751 22.3861 13.4472C23.5582 14.6193 25.148 15.2778 26.8056 15.2778V15.2778ZM26.8056 5.55555C27.4923 5.55555 28.1636 5.75919 28.7346 6.14073C29.3056 6.52226 29.7507 7.06455 30.0135 7.69901C30.2763 8.33348 30.345 9.03163 30.2111 9.70517C30.0771 10.3787 29.7464 10.9974 29.2608 11.483C28.7752 11.9686 28.1565 12.2993 27.483 12.4333C26.8094 12.5673 26.1113 12.4985 25.4768 12.2357C24.8423 11.9729 24.3 11.5278 23.9185 10.9568C23.537 10.3858 23.3333 9.71451 23.3333 9.02777C23.3333 8.10688 23.6992 7.22371 24.3503 6.57254C25.0015 5.92137 25.8847 5.55555 26.8056 5.55555Z" fill="white"/>
<path d="M16.4028 20.8333C16.4861 20.8333 25.1111 19.6945 27.1389 19.4445C28.0417 19.3056 28.7222 19.4445 28.9444 19.6528C29.1667 19.8611 29.2361 20.7639 28.8472 21.9861C28 24.5695 23.7222 37.2639 22.4722 41.0278C23.0832 40.9025 23.6825 40.7259 24.2639 40.5C24.8199 40.27 25.3544 39.9912 25.8611 39.6667C27.5694 34.7222 30.7639 25.1389 31.4861 22.9445C32.2083 20.75 32.0278 19.0833 31.0694 17.9445C30.5227 17.3902 29.8384 16.9913 29.0867 16.7887C28.335 16.5861 27.5429 16.5871 26.7917 16.7917C24.8056 17 16.4167 18.0972 16.0556 18.1806C15.6872 18.2285 15.353 18.4207 15.1263 18.715C14.8997 19.0094 14.7993 19.3817 14.8472 19.75C14.8951 20.1184 15.0874 20.4526 15.3817 20.6792C15.676 20.9058 16.0483 21.0062 16.4167 20.9583L16.4028 20.8333Z" fill="white"/>
</svg>
