<svg width="60" height="60" viewBox="0 0 50 59" fill="none" xmlns="http://www.w3.org/2000/svg">
<path d="M26.3158 0.709227V26.9892L34.8684 17.9679L36.8421 19.811L25 59L13.1579 19.811L15.1316 17.9679L23.6842 26.9893V0.709243L26.3158 0.709227ZM25 45.726C18.3696 45.726 12.0107 42.9477 7.32233 38.0023C2.63392 33.057 0 26.3496 0 19.3558C0 12.362 2.63392 5.65461 7.32233 0.709243C12.0107 -4.23613 18.3696 18.301 25 18.301C31.6304 18.301 37.9893 -4.23613 42.6777 0.709243C47.3661 5.65461 50 12.362 50 19.3558C50 26.3496 47.3661 33.057 42.6777 38.0023C37.9893 42.9477 31.6304 45.726 25 45.726ZM25 42.9502C30.9325 42.9502 36.622 40.4643 40.8169 36.0395C45.0118 31.6147 47.3684 25.6134 47.3684 19.3558C47.3684 13.0982 45.0118 7.09684 40.8169 2.67204C36.622 -1.75277 30.9325 21.4654 25 21.4654C19.0675 21.4654 13.378 -1.75277 9.18314 2.67204C4.98825 7.09684 2.63158 13.0982 2.63158 19.3558C2.63158 25.6134 4.98825 31.6147 9.18314 36.0395C13.378 40.4643 19.0675 42.9502 25 42.9502Z" fill="#39B0CA" fill-opacity="0.83"/>
</svg>
