<svg width="70" height="70" viewBox="0 0 50 50" fill="none" xmlns="http://www.w3.org/2000/svg">
<rect width="70" height="70" fill="black"/>
<path d="M9.49429 50H26.8071C28.6393 49.9087 29.9623 48.4255 29.9843 46.7959V39.0415C31.6866 36.825 34.049 35.2541 35.7597 33.1179C36.3611 32.364 37.0297 31.7806 37.7656 31.3678C40.4024 30.0255 43.4721 30.8388 45.5739 28.9311C47.219 25.0974 44.9176 20.5048 41.3063 19.2111C38.3571 18.1943 35.4161 18.8757 32.8114 20.14C32.819 15.5627 32.7819 10.9855 32.7576 6.40821C32.4794 2.68179 29.9704 0.02475 26.4033 0C22.8085 0.0101667 20.1942 3.10929 20.1297 6.40817V11.7932C19.0707 11.9727 18.1104 12.3227 17.2487 12.8433C15.0344 12.5416 12.8635 13.2319 11.2983 14.5665C-1.483 15.2988 6.09991 32.0433 6.29021 38.3144V46.7959C6.37754 48.641 7.85645 49.978 9.49429 50ZM9.49429 38.4491C9.38633 33.4314 1.80021 16.2863 12.6715 17.9322C13.6494 16.1178 16.2667 15.4196 17.9218 16.532C19.5887 14.8418 21.6829 14.3605 23.3338 15.9935C23.3338 14.378 23.3428 12.7805 23.3607 11.2008C23.3786 9.62121 23.3876 8.02367 23.3876 6.40817C23.4265 4.55942 24.7829 3.27808 26.4032 3.25796C28.3189 3.30021 29.5339 4.75438 29.5534 6.40817C29.5538 12.6742 29.6066 18.8512 29.6073 24.6634C33.8057 24.1403 39.5066 19.1314 42.8141 24.246C43.2162 25.0649 43.3869 25.7197 43.2314 26.575C43.1596 26.7186 43.0878 26.7994 43.016 26.8174C42.9442 26.8353 42.8276 26.8622 42.666 26.8981C39.3381 27.4416 36.0106 27.949 33.8076 30.533C31.6267 33.3773 28.1931 35.0544 26.8071 38.3143V38.449L9.49429 38.4491Z" fill="#39B0CA" fill-opacity="0.83"/>
</svg>

