<svg width="49" height="48" viewBox="0 0 49 48" fill="none" xmlns="http://www.w3.org/2000/svg">
<path d="M24.3095 0.190475C11.1595 0.190475 0.5 10.85 0.5 24C0.5 37.15 11.1595 47.8095 24.3095 47.8095C37.4595 47.8095 48.119 37.15 48.119 24C48.119 10.85 37.4595 0.190475 24.3095 0.190475ZM24.3095 1.5C36.0274 1.5 47.5952 12.2821 47.5952 24C47.5952 35.7179 36.0274 47 24.3095 47C12.5917 47 0.904762 35.7179 0.904762 24C0.904762 12.2821 12.5917 1.5 24.3095 1.5ZM13.7786 8.99643C13.175 10.7536 12.9643 12.6595 13.506 14.325C12.8478 15.0567 12.3314 15.9044 11.9833 16.825C11.0167 19.8798 11.2524 23.7869 13.369 26.1488C14.1131 26.9655 15.1226 27.6345 16.3917 28.1595C17.6607 28.6845 19.294 29.0202 21.2881 29.1643C19.9488 29.7905 19.0048 30.1738 18.6762 31.5571C17.1821 32.5548 15.3667 32.3179 14.0488 31.2333C13.0083 30.4714 12.5357 29.125 11.3833 28.6238C11.3107 28.55 11.0845 28.4988 10.7048 28.4607C10.3238 28.4238 10.0238 28.5321 9.80595 28.7857C9.69762 28.8929 9.70476 29.0095 9.83214 29.1369C10.7036 29.8476 11.5452 30.6 12.0381 31.5012C12.5095 32.4798 13.1595 33.0702 13.669 33.5238C15.0786 34.4762 16.925 34.8167 18.5798 34.2119C18.3869 35.3774 18.7857 37.4738 18.4036 38.5131C18.253 38.8097 18.0397 39.0701 17.7786 39.2762C17.5369 39.5131 16.7845 39.8083 16.9369 40.1714C17.0095 40.3345 17.2619 40.4345 17.6976 40.4714C18.6571 40.4464 19.744 40.0571 20.306 39.3024C20.506 39.0298 20.7381 38.6762 20.7381 38.2417V33.7869C20.7381 33.2786 20.9238 32.919 21.1417 32.6988C21.3595 32.4821 21.5571 32.3155 21.9286 32.2643V38.1369C21.9286 38.644 21.306 40.0583 21.231 40.2024C21.0655 40.4833 20.6952 40.7393 20.6881 41.0702C20.6881 41.181 20.7274 41.244 20.8548 41.2595C21.301 41.2417 21.7341 41.1034 22.1081 40.8592C22.482 40.615 22.7828 40.274 22.9786 39.8726C23.4726 39.1226 23.5845 38.6762 23.7143 37.8095V32.3333H24.9048V37.8095C24.9048 38.5333 24.7857 39.2226 25.1131 39.8714C25.4393 40.525 26.4393 40.9429 27.2 41.125C27.6 41.2345 27.8 41.2762 27.944 41.2583C28.0893 41.2405 28.1179 41.1786 28.1 41.069C28.0143 40.7417 27.5488 40.4583 27.356 40.2012C27.1024 39.8738 26.6905 39.1857 26.6905 38.1345V32.2631C27.081 32.3512 27.2417 32.4821 27.4786 32.6976C27.7131 32.9167 27.881 33.2786 27.881 33.7869V38.2417C27.881 38.6762 28.1952 39.0298 28.3952 39.3024C29.0024 40.0738 30.0226 40.4667 30.9786 40.4714C31.4131 40.4345 31.7202 40.3345 31.794 40.1714C31.8679 40.0083 31.8393 39.8738 31.6583 39.7643C31.4774 39.6548 31.2643 39.4917 30.9905 39.2762C30.7306 39.0704 30.5192 38.8099 30.3714 38.5131C30.2083 36.6452 30.3702 34.6417 30.2393 32.7512C29.9786 30.6893 29.1857 30.0083 27.6024 29.2179C29.4905 29.075 31.0417 28.7286 32.2548 28.1845C35.8893 26.4202 36.8929 23.6905 36.9095 20.031C36.8512 17.675 36.1726 15.6226 34.6214 14.0488C34.8409 13.1986 34.9058 12.316 34.8131 11.4429C34.7382 10.6041 34.5455 9.78014 34.2405 8.99524C32.8988 9.06905 31.7738 9.33809 30.8667 9.80952C29.9595 10.281 29.306 10.6798 28.9071 11.0071C25.694 10.2774 22.2524 10.2738 19.169 11.1155C17.6348 9.86827 15.7514 9.12788 13.7786 8.99643Z" fill="#39B0CA" fill-opacity="0.83"/>
</svg>

