<svg width="50" height="50" viewBox="0 0 50 50" fill="none" xmlns="http://www.w3.org/2000/svg">
<path d="M25 48.4375C12.0562 48.4375 1.5625 37.9438 1.5625 25C1.5625 18.5271 4.18542 12.6688 8.42708 8.42709C10.601 6.2474 13.1843 4.51884 16.0284 3.34078C18.8726 2.16272 21.9215 1.55838 25 1.56251C37.9437 1.56251 48.4375 12.0563 48.4375 25C48.4375 31.4729 45.8146 37.3313 41.5729 41.5729C39.4116 43.7515 36.8397 45.4799 34.0061 46.6582C31.1725 47.8365 28.1334 48.4412 25.0646 48.4375H24.9979H25.0021H25ZM25 4.68751C13.8 4.68751 4.6875 13.8 4.6875 25C4.6875 36.2 13.8 45.3125 25 45.3125C36.2 45.3125 45.3125 36.2 45.3125 25C45.3125 13.8 36.2 4.68751 25 4.68751Z" fill="#39B0CA" fill-opacity="0.83"/>
<path d="M34.8333 30.7917L25 20.9583L15.1667 30.7917L12.9562 28.5812L24.9979 16.5396L37.0396 28.5812L34.8292 30.7917H34.8333Z" fill="#39B0CA" fill-opacity="0.83"/>
</svg>
