<svg width="70" height="70" viewBox="0 0 50 50" fill="none" xmlns="http://www.w3.org/2000/svg">
<path d="M24.9958 50C24.2198 50 23.4946 49.8147 22.8173 49.4942L15.9349 45.8685C14.9049 45.3602 15.4213 45.1749 15.7317 45.0822C17.1313 44.6691 17.3909 44.579 18.8385 43.8478C18.9966 43.7552 19.2026 43.7977 19.3606 43.8904L24.6374 46.6948C24.8462 46.7849 25.1058 46.7849 25.261 46.6948L45.914 36.0856C46.1228 35.9954 46.2244 35.8101 46.2244 35.5798V14.4014C46.2244 14.1735 46.1228 13.9882 45.914 13.8981L25.261 3.33393C25.055 3.24128 24.7954 3.24128 24.6374 3.33393L3.97878 13.8956C3.77279 13.9857 3.66838 14.2186 3.66838 14.3989V35.5748C3.66838 35.7575 3.77279 35.9904 3.97878 36.0806L9.62244 38.9776C12.6757 40.3498 14.5945 38.7397 14.5945 37.1372V16.2393C14.5945 15.9638 14.8513 15.6859 15.2153 15.6859H17.8565C18.1613 15.6859 18.4773 15.9163 18.4773 16.2393V37.1397C18.4773 40.7679 16.2537 42.8838 12.3709 42.8838C11.1801 42.8838 10.2489 42.8838 7.60765 41.732L2.17563 38.9801C1.51379 38.6387 0.96453 38.1492 0.582742 37.5604C0.200953 36.9715 1.08731e-05 36.3041 0 35.6248V14.4464C0 13.0693 0.826797 11.7822 2.17563 11.0937L22.8201 0.484433C23.4903 0.166395 24.2386 0 24.9986 0C25.7586 0 26.5069 0.166395 27.177 0.484433L47.8244 11.0937C49.176 11.7797 50 13.0693 50 14.4464V35.6248C50 36.9995 49.1732 38.2865 47.8244 38.9801L27.177 49.5868C26.497 49.8623 25.721 50 24.9958 50V50ZM31.3618 35.437C22.3037 35.437 20.4413 31.7612 20.4413 28.6413C20.4413 28.3659 20.7009 28.088 21.0621 28.088H23.7542C24.0646 28.088 24.3213 28.2707 24.3213 28.5487C24.7362 30.98 25.9241 32.1769 31.4154 32.1769C35.761 32.1769 37.6291 31.3005 37.6291 29.2348C37.6291 28.0404 37.1071 27.169 30.329 26.5731C24.6882 26.0723 21.1694 24.963 21.1694 20.9692C21.1694 17.2509 24.6882 15.0449 30.5915 15.0449C37.2143 15.0449 40.4763 17.0706 40.8883 21.475C40.8834 21.6237 40.8283 21.7676 40.7303 21.8882C40.6259 21.9783 40.4735 22.071 40.3183 22.071H37.6291C37.4962 22.0685 37.368 22.0267 37.2647 21.9524C37.1615 21.878 37.0892 21.7752 37.0591 21.6603C36.4355 19.1263 34.8327 18.305 30.5915 18.305C25.8254 18.305 25.2554 19.7748 25.2554 20.8766C25.2554 22.2062 25.9241 22.6193 32.3495 23.3555C38.7155 24.0891 41.7179 25.1458 41.7179 29.0995C41.6615 33.1434 37.9395 35.437 31.3618 35.437V35.437Z" fill="#C4C4C4"/>
</svg>

