<svg width="70" height="70" viewBox="0 0 50 50" fill="none" xmlns="http://www.w3.org/2000/svg">
<g clip-path="url(#clip0)">
<path d="M30.4922 18.675C29.4328 18.675 28.6484 18.9422 28.0344 19.2797C27.9359 18.9297 27.6125 18.6734 27.2313 18.75H22.5688C22.1078 18.6734 21.7344 19.0469 21.8766 19.5312V36.7187C21.7344 37.1562 22.1078 37.5312 22.5688 37.5H27.2313C27.6922 37.5312 28.0656 37.1562 28.0656 36.6953L28.0641 26.3078C28.0625 26.3031 28.0453 25.8062 28.3594 25.4641C28.6109 25.1922 29.0438 25.0531 29.6422 25.0531C30.6391 25.0531 31.0828 25.4609 31.2484 26.3734V36.6953C31.0844 37.1562 31.4578 37.5312 31.9188 37.5H36.8328C37.2938 37.5312 37.6672 37.1562 37.5016 36.6953V26.0266C37.6656 20.6016 33.8016 18.675 30.4922 18.675V18.675ZM35.9969 35.9375H32.7531V26.3734C32.7531 24.5281 31.5609 23.3844 29.6438 23.3844C28.5594 23.3844 27.7156 23.7031 27.1344 24.3312C26.3266 25.2062 26.3891 26.3156 26.5625 26.5625V35.9375H23.4031V20.3437H26.3969V20.8687C26.3957 21.0251 26.4386 21.1787 26.5207 21.3118C26.6029 21.4449 26.7209 21.5521 26.8612 21.6211C27.0016 21.6902 27.1585 21.7182 27.3141 21.702C27.4697 21.6859 27.6175 21.6261 27.7406 21.5297L27.9594 21.3609C28.5922 20.8625 29.2469 20.3453 30.4938 20.3453C31.7844 20.3453 35.9984 20.7562 35.9984 26.0281V35.9375H35.9969Z" fill="#39B0CA" fill-opacity="0.83"/>
<path d="M17.1875 10.8844C15.4344 10.8844 14.0094 12.3094 14.0094 14.0625C14.0094 15.8156 15.4344 17.2406 17.1875 17.2406C18.9406 17.2406 20.3656 15.8156 20.3656 14.0625C20.3656 12.3094 18.9406 10.8844 17.1875 10.8844ZM17.1875 15.5719C16.3563 15.5719 15.6781 14.8938 15.6781 14.0625C15.6781 13.2313 16.3563 12.5531 17.1875 12.5531C18.0188 12.5531 18.6969 13.2313 18.6969 14.0625C18.6969 14.8938 18.0188 15.5719 17.1875 15.5719Z" fill="#39B0CA" fill-opacity="0.83"/>
<path d="M19.4188 18.6734H14.7813C14.3203 18.6734 13.9469 19.0469 14.0625 19.5313V36.7188C13.9469 37.1563 14.3203 37.5313 14.7813 37.5H19.4188C19.8797 37.5313 20.2531 37.1563 20.2531 36.6953V19.5078C20.2531 19.2865 20.1652 19.0743 20.0087 18.9178C19.8523 18.7613 19.64 18.6734 19.4188 18.6734ZM18.75 35.9375H15.6156V20.3438H18.75V35.9375Z" fill="#39B0CA" fill-opacity="0.83"/>
<path d="M25 -0.0531235C11.1844 -0.0531235 -0.0531235 11.1844 -0.0531235 25C-0.0531235 38.8156 11.1844 50.0531 25 50.0531C38.8156 50.0531 50.0531 38.8156 50.0531 25C50.0531 11.1844 38.8156 -0.0531235 25 -0.0531235ZM25 48.3844C12.1063 48.3844 1.61563 37.8938 1.61563 25C1.61563 12.1063 12.1063 1.61563 25 1.61563C37.8938 1.61563 48.3844 12.1063 48.3844 25C48.3844 37.8938 37.8938 48.3844 25 48.3844Z" fill="#39B0CA" fill-opacity="0.83"/>
</g>
<defs>
<clipPath id="clip0">
<rect width="50" height="50" fill="white"/>
</clipPath>
</defs>
</svg>
