<svg width="60" height="60" viewBox="0 0 60 60" fill="none" xmlns="http://www.w3.org/2000/svg">
<path d="M17.5088 16.2822C18.3838 16.2822 19.2588 16.3369 20.1338 16.4463C21.0088 16.542 21.8359 16.6719 22.6152 16.8359C23.4082 17 24.126 17.1846 24.7686 17.3896C25.4248 17.5811 25.958 17.7725 26.3682 17.9639C26.4365 17.9912 26.5049 18.0322 26.5732 18.0869C26.6553 18.1416 26.6963 18.2441 26.6963 18.3945C26.6963 18.4355 26.6895 18.4902 26.6758 18.5586C26.6621 18.627 26.6484 18.6953 26.6348 18.7637L26.3887 19.9736C26.3613 20.1377 26.3203 20.2402 26.2656 20.2812C26.2246 20.3086 26.1836 20.3223 26.1426 20.3223C26.0742 20.3223 25.9443 20.3018 25.7529 20.2607C25.5615 20.2197 25.3564 20.1992 25.1377 20.1992C24.3584 20.1992 23.7432 20.4111 23.292 20.835C22.8408 21.2451 22.5537 21.9697 22.4307 23.0088L21.2822 32.5859C21.1729 33.4336 20.8857 34.2266 20.4209 34.9648C19.9697 35.7031 19.3135 36.3525 18.4521 36.9131C17.5908 37.4736 16.5244 37.9111 15.2529 38.2256C13.9951 38.5537 12.5186 38.7178 10.8232 38.7178C9.75684 38.7178 8.71777 38.6494 7.70605 38.5127C6.69434 38.3896 5.75781 38.2324 4.89648 38.041C4.04883 37.8633 3.30371 37.6855 2.66113 37.5078C2.03223 37.3164 1.56055 37.166 1.24609 37.0566C1.13672 37.0293 1.05469 36.9951 1 36.9541C0.931641 36.8994 0.897461 36.8174 0.897461 36.708C0.897461 36.6533 0.904297 36.5918 0.917969 36.5234C0.931641 36.4551 0.952148 36.373 0.979492 36.2773L1.22559 35.1289C1.25293 35.0195 1.30078 34.9307 1.36914 34.8623C1.4375 34.7939 1.56055 34.7598 1.73828 34.7598C2.18945 34.7598 2.64062 34.7393 3.0918 34.6982C3.55664 34.6436 3.98047 34.5137 4.36328 34.3086C4.75977 34.1035 5.10156 33.7891 5.38867 33.3652C5.68945 32.9414 5.89453 32.3467 6.00391 31.5811L7.43945 21.6963C7.58984 20.6572 7.97266 19.7891 8.58789 19.0918C9.20312 18.3945 9.96191 17.8408 10.8643 17.4307C11.7803 17.0068 12.8125 16.7129 13.9609 16.5488C15.1094 16.3711 16.292 16.2822 17.5088 16.2822Z" fill="#39B0CA" fill-opacity="0.83"/>
<path d="M1 42.2041H26.5938V44.2959H1V42.2041Z" fill="#39B0CA" fill-opacity="0.83"/>
<path d="M27.3359 17.0938C27.3359 16.5013 27.3867 15.985 27.4883 15.5449C27.5898 15.1048 27.7845 14.7409 28.0723 14.4531C28.36 14.1484 28.7578 13.9199 29.2656 13.7676C29.7734 13.6152 30.4336 13.5391 31.2461 13.5391H42.5703C43.4505 13.5391 44.1361 13.6576 44.627 13.8945C45.1178 14.1146 45.4818 14.4023 45.7188 14.7578C45.9727 15.1133 46.125 15.5111 46.1758 15.9512C46.2435 16.3743 46.2773 16.7806 46.2773 17.1699V20.166L52.625 13.9961C52.862 13.7591 53.0736 13.5814 53.2598 13.4629C53.446 13.3275 53.6322 13.2598 53.8184 13.2598C53.9876 13.2598 54.1315 13.3021 54.25 13.3867C54.3854 13.4714 54.5293 13.5898 54.6816 13.7422L56.1035 15.2402C56.222 15.3757 56.3151 15.5026 56.3828 15.6211C56.4505 15.7227 56.4844 15.8411 56.4844 15.9766C56.4844 16.3151 56.2812 16.6452 55.875 16.9668L48.1055 23.0352C50.5091 23.2552 52.2611 23.9492 53.3613 25.1172C54.4616 26.2852 55.0117 27.9609 55.0117 30.1445V48.8066C55.0117 49.0944 54.9694 49.3229 54.8848 49.4922C54.8171 49.6445 54.724 49.763 54.6055 49.8477C54.5039 49.9154 54.377 49.9577 54.2246 49.9746C54.0723 49.9915 53.9199 50 53.7676 50H51.6348C51.1947 50 50.9069 49.873 50.7715 49.6191C50.653 49.3652 50.5938 49.0944 50.5938 48.8066V29.8652C50.5938 29.0866 50.5176 28.4434 50.3652 27.9355C50.2298 27.4277 49.9928 27.0215 49.6543 26.7168C49.3158 26.3952 48.8672 26.1667 48.3086 26.0312C47.7669 25.8789 47.0898 25.7858 46.2773 25.752V45.8867C46.2773 46.276 46.2435 46.7077 46.1758 47.1816C46.1081 47.6556 45.9388 48.1042 45.668 48.5273C45.3971 48.9336 44.9824 49.2806 44.4238 49.5684C43.8652 49.8561 43.0951 50 42.1133 50H31.2461C30.4336 50 29.7734 49.9238 29.2656 49.7715C28.7578 49.6191 28.36 49.3991 28.0723 49.1113C27.7845 48.8236 27.5898 48.4596 27.4883 48.0195C27.3867 47.5794 27.3359 47.0632 27.3359 46.4707V17.0938ZM44.1191 17.2969C44.1191 16.9245 44.0938 16.6283 44.043 16.4082C43.9922 16.1882 43.8906 16.0273 43.7383 15.9258C43.5859 15.8073 43.3828 15.7396 43.1289 15.7227C42.875 15.6888 42.5449 15.6719 42.1387 15.6719V47.8672C42.5449 47.8672 42.875 47.8587 43.1289 47.8418C43.3828 47.8079 43.5859 47.7402 43.7383 47.6387C43.8906 47.5202 43.9922 47.3594 44.043 47.1562C44.0938 46.9362 44.1191 46.6315 44.1191 46.2422V17.2969Z" fill="#39B0CA" fill-opacity="0.83"/>
<path d="M25 37H57.0938V39.5898H25V37Z" fill="#39B0CA" fill-opacity="0.83"/>
</svg>

