<svg width="70" height="42" viewBox="0 0 70 42" fill="none" xmlns="http://www.w3.org/2000/svg">
<path d="M19.8672 5.17969C20.8672 5.17969 21.8672 5.24219 22.8672 5.36719C23.8672 5.47656 24.8125 5.625 25.7031 5.8125C26.6094 6 27.4297 6.21094 28.1641 6.44531C28.9141 6.66406 29.5234 6.88281 29.9922 7.10156C30.0703 7.13281 30.1484 7.17969 30.2266 7.24219C30.3203 7.30469 30.3672 7.42188 30.3672 7.59375C30.3672 7.64062 30.3594 7.70312 30.3438 7.78125C30.3281 7.85938 30.3125 7.9375 30.2969 8.01562L30.0156 9.39844C29.9844 9.58594 29.9375 9.70312 29.875 9.75C29.8281 9.78125 29.7812 9.79688 29.7344 9.79688C29.6562 9.79688 29.5078 9.77344 29.2891 9.72656C29.0703 9.67969 28.8359 9.65625 28.5859 9.65625C27.6953 9.65625 26.9922 9.89844 26.4766 10.3828C25.9609 10.8516 25.6328 11.6797 25.4922 12.8672L24.1797 23.8125C24.0547 24.7812 23.7266 25.6875 23.1953 26.5312C22.6797 27.375 21.9297 28.1172 20.9453 28.7578C19.9609 29.3984 18.7422 29.8984 17.2891 30.2578C15.8516 30.6328 14.1641 30.8203 12.2266 30.8203C11.0078 30.8203 9.82031 30.7422 8.66406 30.5859C7.50781 30.4453 6.4375 30.2656 5.45312 30.0469C4.48438 29.8438 3.63281 29.6406 2.89844 29.4375C2.17969 29.2188 1.64062 29.0469 1.28125 28.9219C1.15625 28.8906 1.0625 28.8516 1 28.8047C0.921875 28.7422 0.882812 28.6484 0.882812 28.5234C0.882812 28.4609 0.890625 28.3906 0.90625 28.3125C0.921875 28.2344 0.945312 28.1406 0.976562 28.0312L1.25781 26.7188C1.28906 26.5938 1.34375 26.4922 1.42188 26.4141C1.5 26.3359 1.64062 26.2969 1.84375 26.2969C2.35938 26.2969 2.875 26.2734 3.39062 26.2266C3.92188 26.1641 4.40625 26.0156 4.84375 25.7812C5.29688 25.5469 5.6875 25.1875 6.01562 24.7031C6.35938 24.2188 6.59375 23.5391 6.71875 22.6641L8.35938 11.3672C8.53125 10.1797 8.96875 9.1875 9.67188 8.39062C10.375 7.59375 11.2422 6.96094 12.2734 6.49219C13.3203 6.00781 14.5 5.67188 15.8125 5.48438C17.125 5.28125 18.4766 5.17969 19.8672 5.17969Z" fill="#39B0CA" fill-opacity="0.83"/>
<path d="M1 34.8047H30.25V37.1953H1V34.8047Z" fill="#39B0CA" fill-opacity="0.83"/>
<path d="M32.6055 4.81354C32.6055 4.15273 32.6621 3.57689 32.7754 3.086C32.8887 2.59512 33.1058 2.18919 33.4268 1.86823C33.7477 1.52839 34.1914 1.2735 34.7578 1.10358C35.3242 0.933659 36.0605 0.848698 36.9668 0.848698H49.5977C50.5794 0.848698 51.3441 0.980859 51.8916 1.24518C52.4391 1.49062 52.8451 1.81159 53.1094 2.20807C53.3926 2.60456 53.5625 3.04824 53.6191 3.53913C53.6947 4.01113 53.7324 4.46426 53.7324 4.8985V8.2403L60.8125 1.35846C61.0768 1.09414 61.3128 0.895898 61.5205 0.763737C61.7282 0.612695 61.9359 0.537174 62.1436 0.537174C62.3324 0.537174 62.4928 0.584375 62.625 0.678776C62.776 0.773177 62.9365 0.905338 63.1064 1.07526L64.6924 2.74616C64.8245 2.8972 64.9284 3.0388 65.0039 3.17096C65.0794 3.28424 65.1172 3.41641 65.1172 3.56745C65.1172 3.94505 64.8906 4.31322 64.4375 4.67194L55.7715 11.4405C58.4525 11.6859 60.4066 12.46 61.6338 13.7628C62.861 15.0655 63.4746 16.9346 63.4746 19.3702V40.1856C63.4746 40.5066 63.4274 40.7615 63.333 40.9503C63.2575 41.1202 63.1536 41.2523 63.0215 41.3467C62.9082 41.4223 62.7666 41.4695 62.5967 41.4883C62.4268 41.5072 62.2568 41.5167 62.0869 41.5167H59.708C59.2171 41.5167 58.8962 41.3751 58.7451 41.0919C58.613 40.8087 58.5469 40.5066 58.5469 40.1856V19.0587C58.5469 18.1902 58.4619 17.4727 58.292 16.9063C58.141 16.3399 57.8766 15.8868 57.499 15.5469C57.1214 15.1882 56.6211 14.9333 55.998 14.7823C55.3939 14.6124 54.6387 14.5085 53.7324 14.4708V36.9288C53.7324 37.363 53.6947 37.8445 53.6191 38.3731C53.5436 38.9018 53.3548 39.4021 53.0527 39.8741C52.7507 40.3272 52.2881 40.7143 51.665 41.0352C51.042 41.3562 50.1829 41.5167 49.0879 41.5167H36.9668C36.0605 41.5167 35.3242 41.4317 34.7578 41.2618C34.1914 41.0919 33.7477 40.8464 33.4268 40.5255C33.1058 40.2045 32.8887 39.7986 32.7754 39.3077C32.6621 38.8168 32.6055 38.241 32.6055 37.5801V4.81354ZM51.3252 5.0401C51.3252 4.62474 51.2969 4.29434 51.2402 4.04889C51.1836 3.80345 51.0703 3.62409 50.9004 3.51081C50.7305 3.37865 50.5039 3.30312 50.2207 3.28424C49.9375 3.24648 49.5693 3.2276 49.1162 3.2276V39.1378C49.5693 39.1378 49.9375 39.1283 50.2207 39.1094C50.5039 39.0717 50.7305 38.9962 50.9004 38.8829C51.0703 38.7507 51.1836 38.5714 51.2402 38.3448C51.2969 38.0993 51.3252 37.7595 51.3252 37.3253V5.0401Z" fill="#AAAAAA" fill-opacity="0.83"/>
<path d="M30 27.0167H65.7969V29.9053H30V27.0167Z" fill="#AAAAAA" fill-opacity="0.83"/>
</svg>



