<svg width="50" height="50" viewBox="0 0 50 50" fill="none" xmlns="http://www.w3.org/2000/svg">
<path d="M25 20.5406C22.5422 20.5406 20.5406 22.5422 20.5406 25C20.5406 27.4578 22.5422 29.4594 25 29.4594C27.4578 29.4594 29.4594 27.4578 29.4594 25C29.4594 22.5422 27.4578 20.5406 25 20.5406ZM12.5156 33.8625L11.5313 33.6188C4.20625 31.7625 0 28.6219 0 24.9922C0 21.3625 4.20781 18.2219 11.5313 16.3656L12.5156 16.1219L12.7922 17.0984C13.5353 19.6563 14.4853 22.1494 15.6328 24.5531L15.8438 24.9922L15.6328 25.4391C14.4829 27.8418 13.5328 30.3351 12.7922 32.8938L12.5156 33.8625ZM11.0766 18.6438C5.50938 20.2063 2.09219 22.6063 2.09219 24.9922C2.09219 27.3781 5.51094 29.7688 11.0766 31.3406C11.7588 29.1729 12.5825 27.0522 13.5422 24.9922C12.5811 22.9328 11.7575 20.812 11.0766 18.6438V18.6438ZM37.4844 33.8625L37.2078 32.8859C36.466 30.3302 35.516 27.8396 34.3672 25.4391L34.1563 24.9922L34.3672 24.5453C35.5171 22.1426 36.4672 19.6493 37.2078 17.0906L37.4844 16.1219L38.4688 16.3656C45.7938 18.2219 50 21.3625 50 24.9922C50 28.6219 45.7922 31.7625 38.4688 33.6188L37.4844 33.8625ZM36.4578 24.9922C37.4207 27.0508 38.2444 29.1717 38.9234 31.3406C44.4984 29.7703 47.9078 27.3781 47.9078 24.9922C47.9078 22.6063 44.4891 20.2156 38.9234 18.6438C38.2396 20.8109 37.416 22.9315 36.4578 24.9922ZM11.0594 18.6359L10.7828 17.6594C8.72344 10.4 9.35 5.19219 12.5 3.37656C15.5922 1.59375 20.5484 3.70156 25.7484 9.04062L26.4562 9.76563L25.7484 10.4906C23.9018 12.4119 22.2145 14.4802 20.7031 16.675L20.4187 17.0734L19.9297 17.1141C17.2711 17.3239 14.6338 17.7487 12.0438 18.3844L11.0594 18.6359ZM15.0141 4.82656C14.4531 4.82656 13.9563 4.94062 13.5406 5.18437C11.4734 6.38125 11.1078 10.5313 12.5313 16.1297C14.7523 15.6329 17.0034 15.2821 19.2703 15.0797C20.5754 13.2209 22.0025 11.4509 23.5422 9.78125C20.2953 6.61563 17.2188 4.825 15.0141 4.825V4.82656ZM34.9937 47.2406C34.9859 47.2406 34.9859 47.2406 34.9937 47.2406C32.0234 47.2406 28.2062 45.0109 24.2516 40.9422L23.5437 40.2172L24.2516 39.4922C26.0982 37.5709 27.7855 35.5026 29.2969 33.3078L29.5734 32.9094L30.0625 32.8609C32.7245 32.6581 35.365 32.2332 37.9562 31.5906L38.9406 31.3469L39.2172 32.3234C41.2766 39.5828 40.65 44.7828 37.5 46.5969C36.7384 47.0346 35.872 47.2566 34.9937 47.2391V47.2406ZM26.4562 40.2016C29.7031 43.3672 32.7797 45.1578 34.9844 45.1578H34.9922C35.5453 45.1578 36.0422 45.0359 36.4578 44.8C38.525 43.6031 38.9 39.4531 37.4672 33.8547C35.2466 34.352 32.9952 34.7002 30.7281 34.8969C29.4231 36.7582 27.996 38.5308 26.4562 40.2031V40.2016ZM38.9406 18.6359L37.9562 18.3844C35.3631 17.7509 32.7234 17.3261 30.0625 17.1141L29.5734 17.0734L29.2969 16.675C27.7855 14.4802 26.0982 12.4119 24.2516 10.4906L23.5437 9.76563L24.2516 9.04062C29.4516 3.70156 34.4078 1.59375 37.5 3.37656C40.65 5.19062 41.2766 10.4 39.2172 17.6594L38.9406 18.6359ZM30.7297 15.0797C32.9966 15.2816 35.2478 15.6323 37.4687 16.1297C38.9016 10.5313 38.5266 6.37969 36.4594 5.18437C34.4 3.99688 30.5266 5.81875 26.4578 9.78281C27.9933 11.456 29.4202 13.2258 30.7297 15.0813V15.0797ZM15.0141 47.2406C14.1344 47.2562 13.2641 47.0375 12.5 46.5984C9.35 44.7844 8.72344 39.5828 10.7828 32.325L11.0594 31.3484L12.0438 31.5922C14.4531 32.2031 17.1063 32.625 19.9297 32.8625L20.4187 32.9109L20.6953 33.3094C22.2067 35.5042 23.894 37.5725 25.7406 39.4937L26.4484 40.2187L25.7406 40.9438C21.7938 45.0125 17.9766 47.2422 15.0141 47.2422V47.2406ZM12.5328 33.8547C11.1 39.4531 11.475 43.6047 13.5422 44.8C15.6016 45.9719 19.4672 44.1656 23.5437 40.2016C22.004 38.5293 20.5769 36.7566 19.2719 34.8953C17.0047 34.6992 14.7533 34.351 12.5328 33.8531V33.8547ZM25 35.1641C23.2828 35.1641 21.525 35.0906 19.7594 34.9438L19.2703 34.9031L18.9859 34.4969C17.9886 33.0639 17.0519 31.5897 16.1781 30.0781C15.3026 28.5665 14.4909 27.0188 13.7453 25.4391L13.5344 24.9922L13.7453 24.5453C15.2391 21.3865 16.992 18.3569 18.9859 15.4875L19.2703 15.0813L19.7594 15.0406C23.247 14.7469 26.753 14.7469 30.2406 15.0406L30.7297 15.0813L31.0141 15.4875C33.0106 18.3553 34.7636 21.3851 36.2547 24.5453L36.4656 24.9922L36.2547 25.4391C34.7666 28.6008 33.0135 31.6309 31.0141 34.4969L30.7297 34.9031L30.2406 34.9438C28.4975 35.0896 26.7492 35.1631 25 35.1641V35.1641ZM20.4266 32.9016C23.5031 33.1375 26.4969 33.1375 29.5812 32.9016C31.3014 30.3827 32.8302 27.7383 34.1547 24.9906C32.8358 22.2385 31.3041 19.5934 29.5734 17.0797C26.529 16.8437 23.471 16.8437 20.4266 17.0797C18.6947 19.5927 17.1629 22.2378 15.8453 24.9906C17.1702 27.7396 18.7017 30.3842 20.4266 32.9016V32.9016Z" fill="#AAAAAA" fill-opacity="0.83"/>
</svg>
