<svg width="85" height="85" viewBox="0 0 70 70" fill="none" xmlns="http://www.w3.org/2000/svg">
<path d="M11.8076 38.5777C11.5546 38.385 11.307 38.1854 11.0649 37.9792C11.2378 38.2564 11.4912 38.4713 11.8076 38.5777Z" fill="#AAAAAA" fill-opacity="0.83"/>
<path d="M13.6766 10.8927H56.1722V35.7539C57.6618 34.9279 58.4619 34.3651 59.01 34.0046V9.4696C59.0096 9.09297 58.8598 8.7319 58.5933 8.46571C58.3269 8.19952 57.9656 8.05 57.589 8.05H12.2556C11.4695 8.05 10.8325 8.687 10.8325 9.4696V34.0676C11.3722 34.4078 12.1471 34.9783 13.6766 35.8316V10.8927Z" fill="#AAAAAA" fill-opacity="0.83"/>
<path d="M61.4537 33.5846C61.0876 33.2927 60.5808 33.2941 59.7765 33.5846C59.542 33.67 59.3047 33.8121 59.01 34.0046C58.4619 34.3651 57.6625 34.9279 56.1722 35.7539C55.7123 36.0059 55.2111 36.2775 54.6035 36.582C54.4131 36.6772 54.2297 36.7549 54.0414 36.8459C50.6163 38.4587 47.5356 38.9767 47.5356 38.9767H37.3331C37.1399 38.9767 36.5211 39.0957 36.2243 39.543C35.9317 39.9896 35.9807 40.726 35.9807 40.726V41.9692C36.3489 42.2303 36.7381 42.4641 37.1672 42.6118C40.243 43.6604 42.3241 42.7462 43.232 41.4722C44.2939 39.9784 44.8343 39.1419 46.0005 39.5787C47.1667 40.0155 46.0005 42.8547 44.5445 44.3128C43.085 45.7716 41.3357 46.9371 38.8605 46.9371C37.8203 46.9371 36.8123 46.781 35.9807 46.6039V57.1956C35.9807 60.1846 39.1573 61.782 41.3413 61.782C43.5246 61.782 47.8982 60.5444 50.0122 55.2979C52.1241 50.0528 49.8687 43.1312 49.8687 43.1312C49.8687 43.1312 53.2903 41.5975 56.8624 39.3414C60.431 37.0839 61.3809 34.9692 61.4537 34.6724C61.5237 34.3735 61.8149 33.8772 61.4537 33.5846V33.5846Z" fill="#AAAAAA" fill-opacity="0.83"/>
<path d="M44.5445 44.3121C46.0005 42.854 47.1667 40.0148 46.0005 39.578C44.8343 39.1412 44.2939 39.9777 43.232 41.4715C42.3241 42.7455 40.243 43.6597 37.1672 42.6111C36.7381 42.4634 36.3489 42.2296 35.9807 41.9685C34.4617 40.8884 33.4278 39.1412 32.6669 39.1412H22.4644C22.4644 39.1412 19.6343 38.6624 16.3856 37.205C16.0594 37.058 15.7311 36.9124 15.3979 36.7451C14.8171 36.4539 14.2431 36.1491 13.6766 35.8309C12.1471 34.9776 11.3722 34.4078 10.8325 34.0669C10.6078 33.9248 10.4174 33.8184 10.2228 33.7484C9.42199 33.4572 8.91169 33.4572 8.54699 33.7484C8.18439 34.041 8.47419 34.538 8.54699 34.8355C8.60299 35.063 9.18609 36.3643 11.0642 37.9785C11.7192 38.535 12.4123 39.0451 13.1383 39.5052C16.7069 41.7641 20.132 43.2936 20.132 43.2936C20.132 43.2936 17.8731 50.2138 19.9885 55.4603C22.1011 60.7061 26.4726 61.9493 28.658 61.9493C30.8441 61.9493 34.0207 60.3414 34.0207 57.3545V46.0628C34.0207 46.0628 34.8271 46.3568 35.98 46.6025C36.8116 46.7796 37.8196 46.9357 38.8598 46.9357C41.3357 46.9364 43.085 45.7709 44.5445 44.3121V44.3121Z" fill="#AAAAAA" fill-opacity="0.83"/>
<path d="M42.7119 24.0667C41.0304 24.0669 39.4179 24.7349 38.2289 25.9238C37.0398 27.1127 36.3717 28.7252 36.3713 30.4066C36.3713 33.9059 39.2098 36.7458 42.7119 36.7458C46.2105 36.7458 49.0483 33.9059 49.0483 30.4066C49.0483 26.9066 46.2105 24.0667 42.7119 24.0667Z" fill="#AAAAAA" fill-opacity="0.83"/>
<path d="M27.6808 24.0667C24.1808 24.0667 21.3437 26.9066 21.3437 30.4066C21.3437 33.9059 24.1801 36.7458 27.6808 36.7458C31.1829 36.7458 34.0214 33.9059 34.0214 30.4066C34.0214 26.9066 31.1829 24.0667 27.6808 24.0667Z" fill="#AAAAAA" fill-opacity="0.83"/>
</svg>


